<?xml version="1.0" encoding="UTF-8"?>
<svg xmlns="http://www.w3.org/2000/svg" xmlns:xlink="http://www.w3.org/1999/xlink" width="300pt" height="300pt" viewBox="0 0 300 300" version="1.1">
<g id="surface1">
<path style=" stroke:none;fill-rule:nonzero;fill:rgb(100%,100%,100%);fill-opacity:1;" d="M 150 299.941406 C 232.84375 299.941406 300 232.789062 300 149.9375 C 300 67.089844 232.84375 -0.0625 150 -0.0625 C 67.15625 -0.0625 0 67.089844 0 149.9375 C 0 232.789062 67.15625 299.941406 150 299.941406 "/>
<path style=" stroke:none;fill-rule:nonzero;fill:rgb(52.941176%,52.941176%,52.941176%);fill-opacity:1;" d="M 150 5.25 C 70.214844 5.25 5.304688 70.164062 5.304688 149.945312 C 5.304688 229.730469 70.214844 294.640625 150 294.640625 C 229.785156 294.640625 294.695312 229.730469 294.695312 149.945312 C 294.695312 70.164062 229.785156 5.25 150 5.25 M 150 297.546875 C 68.609375 297.546875 2.398438 231.332031 2.398438 149.945312 C 2.398438 68.558594 68.609375 2.347656 150 2.347656 C 231.390625 2.347656 297.601562 68.5625 297.601562 149.945312 C 297.601562 231.332031 231.390625 297.546875 150 297.546875 "/>
<path style=" stroke:none;fill-rule:nonzero;fill:rgb(52.941176%,52.941176%,52.941176%);fill-opacity:1;" d="M 150 9.972656 C 72.816406 9.972656 10.019531 72.765625 10.019531 149.945312 C 10.019531 227.132812 72.816406 289.925781 150 289.925781 C 227.183594 289.925781 289.980469 227.132812 289.980469 149.945312 C 289.980469 72.761719 227.179688 9.972656 150 9.972656 M 150 290.890625 C 72.28125 290.890625 9.054688 227.664062 9.054688 149.945312 C 9.054688 72.226562 72.285156 9.003906 150 9.003906 C 227.71875 9.003906 290.945312 72.226562 290.945312 149.945312 C 290.945312 227.664062 227.71875 290.890625 150 290.890625 "/>
<path style=" stroke:none;fill-rule:nonzero;fill:rgb(52.941176%,52.941176%,52.941176%);fill-opacity:1;" d="M 33.71875 140.484375 L 35.3125 140.78125 L 35.332031 140.585938 C 34.328125 140.03125 34.035156 139.832031 34.109375 139.226562 L 34.164062 138.75 L 38.347656 139.226562 C 38.757812 139.269531 38.757812 139.464844 38.765625 139.976562 L 38.984375 140 L 39.238281 137.757812 L 39.019531 137.734375 C 38.898438 138.222656 38.851562 138.414062 38.445312 138.367188 L 34.253906 137.890625 L 34.3125 137.417969 C 34.378906 136.808594 34.707031 136.683594 35.8125 136.363281 L 35.832031 136.175781 L 34.214844 136.101562 Z M 34.363281 128.730469 C 34.621094 128.789062 34.890625 128.628906 34.945312 128.363281 C 35.007812 128.089844 34.832031 127.824219 34.570312 127.769531 C 34.304688 127.710938 34.042969 127.882812 33.980469 128.15625 C 33.925781 128.417969 34.097656 128.675781 34.363281 128.730469 M 34.667969 127.328125 C 34.925781 127.386719 35.199219 127.222656 35.253906 126.960938 C 35.3125 126.683594 35.132812 126.425781 34.875 126.371094 C 34.609375 126.3125 34.351562 126.480469 34.292969 126.75 C 34.230469 127.011719 34.402344 127.269531 34.667969 127.328125 M 35.941406 129.152344 C 35.535156 129.066406 35.511719 128.96875 35.5625 128.429688 L 35.347656 128.382812 L 34.898438 130.449219 L 35.113281 130.496094 C 35.292969 129.992188 35.355469 129.90625 35.761719 129.996094 L 38.347656 130.558594 C 39.589844 130.828125 40.328125 130.199219 40.59375 128.984375 C 40.816406 127.953125 40.417969 127.007812 39.203125 126.746094 L 36.601562 126.179688 C 36.195312 126.09375 36.167969 125.984375 36.210938 125.453125 L 35.996094 125.40625 L 35.636719 127.042969 L 35.851562 127.085938 C 36.039062 126.503906 36.121094 126.414062 36.523438 126.503906 L 38.996094 127.042969 C 40.058594 127.273438 40.375 127.929688 40.183594 128.8125 C 40.011719 129.59375 39.382812 129.902344 38.472656 129.707031 Z M 38.039062 118.25 C 38.277344 117.441406 38.867188 117.210938 39.492188 117.394531 C 40.242188 117.617188 40.574219 118.117188 40.335938 118.910156 L 40.210938 119.328125 L 37.917969 118.644531 Z M 40.46875 119.40625 L 40.601562 118.972656 L 42.414062 118.339844 C 42.773438 118.21875 43.042969 118.113281 43.242188 117.953125 L 43.597656 116.761719 L 43.386719 116.699219 C 43.257812 117.078125 43.054688 117.25 42.519531 117.441406 L 40.714844 118.128906 C 40.761719 117.566406 40.554688 116.765625 39.75 116.527344 C 38.945312 116.289062 38.203125 116.75 37.847656 117.949219 L 37.238281 119.996094 L 37.449219 120.0625 C 37.664062 119.574219 37.734375 119.5 38.128906 119.617188 L 41.667969 120.667969 C 42.0625 120.789062 42.078125 120.882812 41.992188 121.414062 L 42.203125 121.476562 L 42.800781 119.453125 L 42.59375 119.390625 C 42.378906 119.882812 42.308594 119.953125 41.914062 119.835938 Z M 43.328125 108.617188 L 42.382812 106.5 C 42.253906 106.203125 42.207031 106.046875 42.308594 105.742188 L 42.105469 105.65625 L 41.503906 107.132812 L 41.707031 107.214844 C 41.917969 106.796875 41.984375 106.714844 42.097656 106.761719 C 42.1875 106.796875 42.25 106.914062 42.300781 107.027344 L 43.390625 109.457031 L 45.652344 108.855469 C 45.980469 108.769531 46.300781 108.65625 46.527344 108.53125 L 46.988281 107.398438 L 46.785156 107.316406 C 46.609375 107.683594 46.480469 107.761719 45.921875 107.917969 Z M 41.613281 108.832031 C 41.234375 108.675781 41.226562 108.578125 41.363281 108.0625 L 41.160156 107.976562 L 40.363281 109.929688 L 40.566406 110.011719 C 40.828125 109.542969 40.902344 109.480469 41.285156 109.636719 L 44.703125 111.03125 C 45.082031 111.183594 45.089844 111.285156 44.953125 111.800781 L 45.15625 111.882812 L 45.953125 109.933594 L 45.75 109.851562 C 45.488281 110.320312 45.414062 110.382812 45.03125 110.226562 Z M 45.71875 99.398438 C 45.351562 99.214844 45.351562 99.117188 45.523438 98.613281 L 45.328125 98.511719 L 44.390625 100.402344 L 44.589844 100.5 C 44.886719 100.050781 44.964844 99.996094 45.332031 100.179688 L 48.640625 101.820312 C 49.007812 102.003906 49.007812 102.101562 48.835938 102.605469 L 49.027344 102.703125 L 49.96875 100.8125 L 49.769531 100.71875 C 49.472656 101.164062 49.394531 101.222656 49.023438 101.039062 Z M 44.515625 99.296875 C 44.648438 99.019531 44.539062 98.714844 44.28125 98.589844 C 44.03125 98.460938 43.71875 98.558594 43.582031 98.832031 C 43.445312 99.101562 43.5625 99.40625 43.8125 99.53125 C 44.074219 99.65625 44.378906 99.566406 44.515625 99.296875 M 51.902344 92.773438 L 50.449219 90.125 C 50.351562 89.941406 50.371094 89.800781 50.449219 89.613281 L 50.261719 89.496094 L 49.480469 90.742188 L 49.667969 90.855469 C 49.929688 90.46875 50.058594 90.371094 50.222656 90.472656 C 50.328125 90.539062 50.414062 90.675781 50.484375 90.792969 L 51.519531 92.667969 L 49.351562 92.582031 C 49.1875 92.578125 49.070312 92.570312 48.960938 92.503906 C 48.796875 92.402344 48.816406 92.25 49.058594 91.832031 L 48.871094 91.71875 L 47.792969 93.445312 L 47.980469 93.5625 C 48.125 93.40625 48.222656 93.328125 48.441406 93.335938 L 51.46875 93.476562 L 52.589844 94.175781 C 52.9375 94.394531 52.851562 94.574219 52.644531 95.035156 L 52.832031 95.152344 L 54.003906 93.269531 L 53.816406 93.148438 C 53.496094 93.539062 53.371094 93.6875 53.023438 93.476562 Z M 57.351562 87.863281 L 59.714844 84.617188 L 58.71875 83.613281 L 58.59375 83.785156 C 58.980469 84.648438 59.085938 85.023438 58.757812 85.476562 L 58.417969 85.941406 C 58.132812 86.335938 57.925781 86.441406 57.605469 86.207031 L 56.175781 85.171875 L 56.804688 84.3125 C 57 84.050781 57.234375 84.074219 57.648438 84.285156 L 57.78125 84.101562 L 56.480469 83.148438 L 56.34375 83.332031 C 56.671875 83.660156 56.773438 83.882812 56.582031 84.144531 L 55.953125 85.003906 L 54.253906 83.761719 L 54.953125 82.804688 C 55.28125 82.363281 55.582031 82.308594 56.433594 82.496094 L 56.539062 82.351562 L 55.484375 81.628906 L 53.160156 84.8125 L 53.339844 84.945312 C 53.707031 84.554688 53.792969 84.507812 54.128906 84.75 L 57.109375 86.921875 C 57.445312 87.164062 57.429688 87.265625 57.171875 87.734375 Z M 64.714844 70.261719 C 63.714844 71.285156 63.734375 72.820312 64.949219 74.003906 C 66.03125 75.0625 67.457031 75.082031 68.546875 73.960938 C 69.023438 73.476562 69.28125 72.988281 69.398438 72.492188 L 68.507812 71.476562 L 68.328125 71.660156 C 68.917969 72.570312 68.894531 73.207031 68.375 73.734375 C 67.628906 74.5 66.441406 74.15625 65.457031 73.191406 C 64.554688 72.308594 64.167969 71.214844 64.914062 70.449219 C 65.433594 69.917969 66.070312 69.894531 66.792969 70.367188 L 66.960938 70.199219 L 66.148438 69.414062 C 65.664062 69.523438 65.164062 69.800781 64.714844 70.261719 M 71.4375 64.738281 C 71.160156 64.429688 71.199219 64.335938 71.554688 63.933594 L 71.40625 63.765625 L 69.828125 65.171875 L 69.972656 65.339844 C 70.414062 65.035156 70.515625 65.003906 70.789062 65.316406 L 72.546875 67.296875 C 73.390625 68.246094 74.359375 68.175781 75.285156 67.347656 C 76.078125 66.648438 76.3125 65.648438 75.484375 64.71875 L 73.714844 62.726562 C 73.441406 62.421875 73.476562 62.320312 73.832031 61.917969 L 73.683594 61.75 L 72.433594 62.863281 L 72.582031 63.027344 C 73.078125 62.664062 73.195312 62.636719 73.46875 62.945312 L 75.152344 64.839844 C 75.871094 65.652344 75.738281 66.371094 75.0625 66.96875 C 74.464844 67.5 73.769531 67.375 73.152344 66.679688 Z M 84.390625 58.761719 C 84.425781 58.808594 84.484375 58.886719 84.503906 58.910156 C 84.710938 59.195312 84.621094 59.355469 84.226562 59.695312 L 84.359375 59.875 L 86.113281 58.589844 L 85.984375 58.414062 C 85.640625 58.625 85.476562 58.664062 85.234375 58.402344 L 82.660156 55.636719 C 82.429688 55.320312 82.476562 55.136719 82.84375 54.835938 L 82.710938 54.65625 L 81.554688 55.5 C 81.644531 55.648438 81.675781 55.75 81.722656 55.917969 L 82.773438 59.417969 L 79.667969 57.414062 C 79.527344 57.320312 79.433594 57.261719 79.324219 57.128906 L 78.15625 57.980469 L 78.285156 58.160156 C 78.683594 57.902344 78.878906 57.90625 79.109375 58.222656 L 80.949219 61.519531 C 81.125 61.820312 81.039062 61.972656 80.730469 62.234375 L 80.859375 62.410156 L 82.171875 61.457031 L 82.042969 61.277344 C 81.601562 61.546875 81.417969 61.585938 81.210938 61.300781 C 81.191406 61.277344 81.144531 61.195312 81.109375 61.144531 L 79.523438 58.339844 L 83.199219 60.710938 L 83.402344 60.558594 L 82.1875 56.398438 Z M 89.488281 50.988281 C 89.285156 50.628906 89.339844 50.550781 89.773438 50.230469 L 89.667969 50.035156 L 87.828125 51.066406 L 87.933594 51.261719 C 88.429688 51.058594 88.53125 51.054688 88.734375 51.414062 L 90.53125 54.632812 C 90.734375 54.996094 90.679688 55.078125 90.246094 55.394531 L 90.355469 55.582031 L 92.195312 54.554688 L 92.085938 54.363281 C 91.589844 54.566406 91.488281 54.570312 91.289062 54.207031 L 90.421875 52.664062 L 92.535156 51.484375 L 93.402344 53.027344 C 93.605469 53.390625 93.546875 53.472656 93.113281 53.789062 L 93.222656 53.980469 L 95.0625 52.953125 L 94.953125 52.761719 C 94.457031 52.960938 94.359375 52.96875 94.15625 52.605469 L 92.355469 49.390625 C 92.152344 49.027344 92.210938 48.949219 92.636719 48.628906 L 92.53125 48.433594 L 90.691406 49.464844 L 90.796875 49.65625 C 91.296875 49.457031 91.394531 49.449219 91.597656 49.808594 L 92.382812 51.21875 L 90.269531 52.402344 Z M 99.050781 45.804688 C 98.875 45.429688 98.9375 45.351562 99.398438 45.066406 L 99.304688 44.867188 L 97.386719 45.761719 L 97.476562 45.960938 C 97.988281 45.796875 98.09375 45.796875 98.269531 46.171875 L 99.390625 48.570312 C 99.925781 49.71875 100.878906 49.925781 102 49.402344 C 102.953125 48.957031 103.46875 48.066406 102.9375 46.9375 L 101.8125 44.523438 C 101.636719 44.152344 101.707031 44.0625 102.15625 43.777344 L 102.0625 43.578125 L 100.550781 44.285156 L 100.640625 44.484375 C 101.222656 44.277344 101.339844 44.289062 101.515625 44.664062 L 102.589844 46.957031 C 103.046875 47.9375 102.714844 48.589844 101.902344 48.972656 C 101.167969 49.3125 100.542969 48.996094 100.148438 48.152344 Z M 109.148438 40.933594 C 109.941406 40.652344 110.480469 40.996094 110.695312 41.609375 C 110.953125 42.347656 110.746094 42.90625 109.964844 43.183594 L 109.554688 43.328125 L 108.757812 41.070312 Z M 109.644531 43.578125 L 110.070312 43.429688 L 111.648438 44.523438 C 111.957031 44.742188 112.199219 44.898438 112.449219 44.964844 L 113.617188 44.558594 L 113.546875 44.347656 C 113.164062 44.464844 112.90625 44.402344 112.4375 44.082031 L 110.820312 43.023438 C 111.300781 42.730469 111.832031 42.089844 111.550781 41.300781 C 111.269531 40.507812 110.460938 40.179688 109.285156 40.589844 L 107.265625 41.300781 L 107.339844 41.511719 C 107.859375 41.398438 107.960938 41.410156 108.097656 41.800781 L 109.324219 45.28125 C 109.460938 45.667969 109.390625 45.742188 108.914062 45.980469 L 108.984375 46.1875 L 110.976562 45.484375 L 110.90625 45.277344 C 110.378906 45.386719 110.285156 45.378906 110.144531 44.984375 Z M 118.761719 38.3125 C 118.652344 37.910156 118.722656 37.84375 119.222656 37.644531 L 119.160156 37.429688 L 117.128906 37.980469 L 117.1875 38.195312 C 117.714844 38.121094 117.816406 38.140625 117.921875 38.535156 L 118.882812 42.097656 C 118.992188 42.5 118.917969 42.5625 118.421875 42.765625 L 118.476562 42.980469 L 120.511719 42.425781 L 120.457031 42.210938 C 119.925781 42.289062 119.828125 42.269531 119.722656 41.871094 Z M 118.035156 37.339844 C 118.335938 37.261719 118.488281 36.976562 118.414062 36.699219 C 118.34375 36.425781 118.066406 36.261719 117.765625 36.339844 C 117.476562 36.417969 117.324219 36.707031 117.398438 36.976562 C 117.472656 37.25 117.746094 37.421875 118.035156 37.339844 M 127.789062 38.605469 L 128.742188 35.738281 C 128.808594 35.546875 128.929688 35.464844 129.121094 35.390625 L 129.074219 35.171875 L 127.632812 35.449219 L 127.675781 35.667969 C 128.140625 35.59375 128.300781 35.625 128.335938 35.8125 C 128.359375 35.933594 128.3125 36.09375 128.28125 36.21875 L 127.609375 38.253906 L 126.199219 36.601562 C 126.089844 36.480469 126.015625 36.386719 125.992188 36.269531 C 125.957031 36.078125 126.078125 35.984375 126.546875 35.882812 L 126.503906 35.664062 L 124.507812 36.050781 L 124.550781 36.265625 C 124.761719 36.265625 124.882812 36.285156 125.03125 36.449219 L 126.980469 38.761719 L 127.230469 40.0625 C 127.308594 40.46875 127.117188 40.527344 126.636719 40.6875 L 126.679688 40.90625 L 128.859375 40.488281 L 128.816406 40.269531 C 128.3125 40.296875 128.121094 40.3125 128.042969 39.90625 Z M 135.109375 39.359375 L 139.113281 39.007812 L 139.214844 37.59375 L 139 37.613281 C 138.601562 38.472656 138.394531 38.804688 137.832031 38.851562 L 137.261719 38.902344 C 136.777344 38.945312 136.5625 38.859375 136.527344 38.464844 L 136.371094 36.710938 L 137.433594 36.613281 C 137.753906 36.585938 137.894531 36.78125 138.003906 37.230469 L 138.230469 37.210938 L 138.085938 35.601562 L 137.859375 35.621094 C 137.828125 36.082031 137.730469 36.308594 137.40625 36.335938 L 136.347656 36.425781 L 136.160156 34.332031 L 137.34375 34.226562 C 137.886719 34.179688 138.136719 34.371094 138.550781 35.132812 L 138.730469 35.117188 L 138.582031 33.847656 L 134.65625 34.199219 L 134.675781 34.417969 C 135.210938 34.4375 135.300781 34.472656 135.335938 34.882812 L 135.664062 38.558594 C 135.699219 38.96875 135.617188 39.023438 135.089844 39.132812 Z M 144.375 33.367188 L 144.285156 34.984375 L 144.484375 34.980469 C 144.90625 33.910156 145.066406 33.601562 145.675781 33.59375 L 146.152344 33.589844 L 146.210938 37.800781 C 146.214844 38.214844 146.023438 38.238281 145.515625 38.316406 L 145.515625 38.53125 L 147.769531 38.503906 L 147.769531 38.285156 C 147.265625 38.226562 147.074219 38.207031 147.070312 37.792969 L 147.019531 33.582031 L 147.492188 33.574219 C 148.105469 33.566406 148.273438 33.875 148.722656 34.933594 L 148.917969 34.933594 L 148.789062 33.320312 Z M 155.859375 34.1875 C 155.886719 33.773438 155.976562 33.734375 156.507812 33.703125 L 156.523438 33.484375 L 154.421875 33.351562 L 154.40625 33.570312 C 154.929688 33.667969 155.019531 33.722656 154.992188 34.132812 L 154.757812 37.8125 C 154.726562 38.222656 154.636719 38.261719 154.105469 38.292969 L 154.09375 38.511719 L 156.195312 38.648438 L 156.210938 38.429688 C 155.6875 38.332031 155.597656 38.277344 155.625 37.867188 Z M 155.488281 33.039062 C 155.796875 33.058594 156.03125 32.835938 156.050781 32.550781 C 156.070312 32.265625 155.863281 32.019531 155.554688 32 C 155.253906 31.980469 155.019531 32.203125 155.003906 32.480469 C 154.980469 32.765625 155.183594 33.019531 155.488281 33.039062 M 170.746094 35.0625 C 169.339844 34.792969 168.070312 35.65625 167.75 37.320312 C 167.46875 38.808594 168.234375 40.003906 169.773438 40.296875 C 170.441406 40.425781 170.988281 40.371094 171.46875 40.195312 L 171.824219 38.894531 L 171.566406 38.847656 C 171.140625 39.839844 170.59375 40.171875 169.867188 40.03125 C 168.816406 39.832031 168.449219 38.648438 168.707031 37.292969 C 168.945312 36.054688 169.648438 35.132812 170.699219 35.332031 C 171.421875 35.46875 171.792969 35.988281 171.800781 36.855469 L 172.035156 36.898438 L 172.238281 35.792969 C 171.886719 35.445312 171.378906 35.1875 170.746094 35.0625 M 179.175781 37.683594 C 179.296875 37.285156 179.390625 37.269531 179.929688 37.355469 L 179.992188 37.144531 L 177.960938 36.542969 L 177.898438 36.753906 C 178.390625 36.972656 178.464844 37.039062 178.351562 37.433594 L 177.597656 39.972656 C 177.234375 41.1875 177.8125 41.972656 178.996094 42.328125 C 180.007812 42.628906 180.980469 42.304688 181.335938 41.113281 L 182.09375 38.5625 C 182.214844 38.164062 182.320312 38.144531 182.847656 38.230469 L 182.914062 38.019531 L 181.3125 37.542969 L 181.246094 37.753906 C 181.816406 37.984375 181.898438 38.070312 181.785156 38.46875 L 181.0625 40.894531 C 180.75 41.929688 180.070312 42.199219 179.210938 41.941406 C 178.4375 41.710938 178.179688 41.054688 178.445312 40.171875 Z M 191.144531 45.375 C 191.125 45.429688 191.09375 45.523438 191.082031 45.546875 C 190.945312 45.871094 190.761719 45.878906 190.265625 45.726562 L 190.183594 45.929688 L 192.195312 46.75 L 192.277344 46.546875 C 191.921875 46.367188 191.800781 46.25 191.898438 45.902344 L 192.898438 42.265625 C 193.050781 41.902344 193.226562 41.851562 193.675781 42.003906 L 193.761719 41.800781 L 192.4375 41.257812 C 192.363281 41.410156 192.285156 41.492188 192.171875 41.621094 L 189.738281 44.351562 L 189.816406 40.660156 C 189.820312 40.488281 189.828125 40.375 189.878906 40.214844 L 188.539062 39.664062 L 188.457031 39.867188 C 188.878906 40.074219 188.980469 40.242188 188.832031 40.601562 L 186.992188 43.898438 C 186.828125 44.203125 186.65625 44.214844 186.269531 44.089844 L 186.1875 44.289062 L 187.6875 44.90625 L 187.773438 44.699219 C 187.3125 44.464844 187.179688 44.332031 187.316406 44.003906 C 187.328125 43.976562 187.367188 43.894531 187.398438 43.839844 L 188.953125 41.015625 L 188.863281 45.386719 L 189.101562 45.488281 L 192.003906 42.265625 Z M 200.394531 45.480469 C 200.589844 45.113281 200.6875 45.117188 201.191406 45.308594 L 201.292969 45.113281 L 199.429688 44.128906 L 199.328125 44.324219 C 199.769531 44.628906 199.824219 44.707031 199.628906 45.074219 L 197.910156 48.335938 C 197.714844 48.703125 197.617188 48.703125 197.113281 48.511719 L 197.011719 48.707031 L 198.875 49.691406 L 198.976562 49.496094 C 198.539062 49.191406 198.480469 49.105469 198.675781 48.742188 L 199.503906 47.175781 L 201.644531 48.304688 L 200.816406 49.871094 C 200.621094 50.234375 200.527344 50.234375 200.023438 50.042969 L 199.917969 50.238281 L 201.78125 51.222656 L 201.886719 51.03125 C 201.449219 50.722656 201.390625 50.640625 201.585938 50.273438 L 203.304688 47.011719 C 203.5 46.648438 203.59375 46.652344 204.097656 46.835938 L 204.203125 46.644531 L 202.339844 45.65625 L 202.234375 45.851562 C 202.675781 46.160156 202.734375 46.242188 202.539062 46.601562 L 201.78125 48.035156 L 199.640625 46.90625 Z M 210.050781 50.722656 C 210.277344 50.378906 210.378906 50.390625 210.867188 50.632812 L 210.984375 50.445312 L 209.21875 49.28125 L 209.097656 49.464844 C 209.503906 49.808594 209.558594 49.902344 209.332031 50.246094 L 207.875 52.457031 C 207.175781 53.515625 207.496094 54.433594 208.535156 55.117188 C 209.414062 55.699219 210.441406 55.667969 211.128906 54.625 L 212.589844 52.402344 C 212.820312 52.054688 212.929688 52.066406 213.410156 52.300781 L 213.527344 52.117188 L 212.128906 51.195312 L 212.011719 51.382812 C 212.488281 51.769531 212.542969 51.875 212.3125 52.222656 L 210.921875 54.335938 C 210.324219 55.242188 209.597656 55.300781 208.84375 54.804688 C 208.171875 54.363281 208.113281 53.660156 208.625 52.886719 Z M 219.464844 56.585938 C 220.132812 57.097656 220.136719 57.734375 219.742188 58.25 C 219.265625 58.871094 218.683594 59 218.03125 58.496094 L 217.683594 58.234375 L 219.140625 56.335938 Z M 217.519531 58.445312 L 217.875 58.71875 L 217.820312 60.636719 C 217.804688 61.019531 217.808594 61.308594 217.886719 61.554688 L 218.867188 62.3125 L 219.003906 62.136719 C 218.699219 61.882812 218.609375 61.632812 218.617188 61.058594 L 218.621094 59.128906 C 219.136719 59.371094 219.957031 59.460938 220.460938 58.800781 C 220.976562 58.132812 220.808594 57.273438 219.820312 56.511719 L 218.121094 55.214844 L 217.988281 55.390625 C 218.367188 55.761719 218.410156 55.855469 218.15625 56.179688 L 215.914062 59.109375 C 215.664062 59.433594 215.566406 59.417969 215.101562 59.148438 L 214.96875 59.324219 L 216.640625 60.605469 L 216.773438 60.429688 C 216.394531 60.058594 216.351562 59.964844 216.605469 59.640625 Z M 226.125 65.097656 C 226.761719 65.6875 226.703125 66.292969 226.253906 66.773438 C 225.765625 67.292969 225.226562 67.355469 224.679688 66.84375 L 224.617188 66.789062 C 224.269531 66.464844 224.195312 66.261719 224.46875 65.964844 L 225.675781 64.671875 Z M 227.628906 63.246094 C 228.175781 63.753906 228.21875 64.304688 227.769531 64.78125 C 227.285156 65.300781 226.769531 65.316406 226.195312 64.78125 L 225.859375 64.46875 L 227.292969 62.929688 Z M 224.578125 67.113281 C 225.46875 67.945312 226.320312 68 226.902344 67.375 C 227.4375 66.804688 227.257812 65.988281 226.570312 65.296875 C 227.132812 65.710938 227.910156 65.910156 228.414062 65.363281 C 228.992188 64.742188 228.824219 63.992188 227.996094 63.21875 L 226.382812 61.71875 L 226.230469 61.882812 C 226.578125 62.289062 226.609375 62.382812 226.328125 62.6875 L 223.8125 65.386719 C 223.53125 65.6875 223.4375 65.660156 223 65.347656 L 222.851562 65.507812 Z M 232.6875 73.96875 C 232.636719 74.074219 232.578125 74.15625 232.515625 74.214844 C 232.34375 74.367188 232.164062 74.285156 231.847656 73.949219 L 231.679688 74.097656 L 233.046875 75.632812 L 233.210938 75.488281 C 233.101562 75.308594 233.03125 75.160156 233.125 74.976562 L 235.386719 70.394531 L 234.769531 69.699219 L 234.53125 70.207031 L 230.277344 71.761719 C 230.078125 71.84375 229.945312 71.75 229.785156 71.621094 L 229.617188 71.765625 L 230.601562 72.875 L 230.765625 72.730469 C 230.464844 72.355469 230.40625 72.167969 230.578125 72.019531 C 230.640625 71.960938 230.738281 71.917969 230.84375 71.882812 L 231.769531 71.535156 L 233.136719 73.074219 Z M 234.375 70.570312 L 233.261719 72.808594 L 232.042969 71.433594 Z M 235.691406 81.269531 C 236.140625 81.851562 236.667969 82.160156 237.074219 81.847656 C 237.375 81.617188 237.332031 81.277344 237.0625 80.910156 L 237.335938 80.828125 C 237.929688 81.601562 238.84375 81.917969 239.617188 81.328125 C 240.308594 80.800781 240.265625 80.125 239.976562 79.089844 C 239.738281 78.253906 239.742188 77.914062 240.175781 77.582031 C 240.558594 77.285156 241.042969 77.339844 241.375 77.777344 C 241.804688 78.335938 241.71875 78.953125 241.140625 79.542969 L 241.289062 79.738281 L 242.160156 79.066406 C 242.148438 78.613281 241.945312 78.089844 241.585938 77.613281 C 240.980469 76.820312 240.113281 76.699219 239.457031 77.199219 C 238.773438 77.722656 238.835938 78.390625 239.074219 79.222656 C 239.347656 80.183594 239.363281 80.582031 238.898438 80.933594 C 238.46875 81.261719 237.941406 81.175781 237.546875 80.660156 C 237.09375 80.066406 237.25 79.359375 237.878906 78.667969 L 237.722656 78.464844 L 236.753906 79.269531 C 236.738281 79.648438 236.890625 80.164062 237.21875 80.652344 L 236.515625 80.847656 C 236.753906 81.183594 236.820312 81.402344 236.648438 81.535156 C 236.476562 81.667969 236.15625 81.523438 235.835938 81.101562 Z M 245.355469 86.714844 L 247.625 87.183594 C 247.9375 87.261719 248.09375 87.3125 248.285156 87.574219 L 248.472656 87.453125 L 247.628906 86.105469 L 247.441406 86.21875 C 247.65625 86.632812 247.6875 86.734375 247.582031 86.804688 C 247.496094 86.855469 247.371094 86.839844 247.246094 86.8125 L 244.640625 86.269531 L 243.800781 88.457031 C 243.679688 88.777344 243.585938 89.097656 243.554688 89.359375 L 244.203125 90.394531 L 244.390625 90.28125 C 244.195312 89.921875 244.203125 89.773438 244.402344 89.226562 Z M 246.183594 85.199219 C 246.53125 84.980469 246.617188 85.03125 246.953125 85.449219 L 247.140625 85.328125 L 246.023438 83.542969 L 245.835938 83.65625 C 246.058594 84.140625 246.070312 84.242188 245.722656 84.457031 L 242.589844 86.414062 C 242.242188 86.632812 242.15625 86.582031 241.820312 86.164062 L 241.632812 86.277344 L 242.75 88.070312 L 242.9375 87.953125 C 242.710938 87.46875 242.703125 87.367188 243.050781 87.148438 Z M 249.308594 97.539062 C 249.234375 97.628906 249.160156 97.695312 249.078125 97.734375 C 248.875 97.839844 248.722656 97.722656 248.492188 97.320312 L 248.296875 97.425781 L 249.257812 99.246094 L 249.453125 99.140625 C 249.390625 98.941406 249.359375 98.785156 249.492188 98.628906 L 252.777344 94.710938 L 252.34375 93.886719 L 251.992188 94.324219 L 247.484375 94.824219 C 247.277344 94.855469 247.167969 94.734375 247.042969 94.566406 L 246.847656 94.671875 L 247.539062 95.980469 L 247.734375 95.878906 C 247.53125 95.445312 247.519531 95.25 247.71875 95.144531 C 247.792969 95.105469 247.894531 95.085938 248.007812 95.074219 L 248.988281 94.960938 L 249.945312 96.78125 Z M 251.75 94.640625 L 250.136719 96.546875 L 249.277344 94.921875 Z M 254.496094 107.152344 L 256.84375 103.085938 L 256.351562 101.878906 L 256.148438 101.960938 C 256.234375 102.238281 256.171875 102.375 255.964844 102.722656 L 252.496094 104.140625 C 252.113281 104.292969 252.035156 104.230469 251.765625 103.757812 L 251.5625 103.839844 L 252.203125 105.402344 L 252.40625 105.320312 C 252.226562 104.730469 252.238281 104.601562 252.621094 104.441406 L 255.78125 103.148438 L 253.144531 107.773438 L 253.246094 108.019531 L 257.363281 106.335938 C 257.746094 106.183594 257.824219 106.242188 258.089844 106.71875 L 258.292969 106.636719 L 257.65625 105.074219 L 257.453125 105.15625 C 257.625 105.746094 257.617188 105.875 257.238281 106.03125 Z M 260.082031 113.582031 C 260.480469 113.464844 260.546875 113.535156 260.761719 114.027344 L 260.972656 113.960938 L 260.371094 111.941406 L 260.160156 112.003906 C 260.25 112.53125 260.234375 112.628906 259.835938 112.746094 L 256.300781 113.800781 C 255.90625 113.917969 255.839844 113.84375 255.621094 113.355469 L 255.410156 113.417969 L 256.496094 117.085938 L 258.015625 116.890625 L 257.957031 116.683594 C 257.011719 116.488281 256.558594 116.359375 256.390625 115.796875 L 256.285156 115.429688 C 256.144531 114.960938 256.1875 114.742188 256.570312 114.628906 Z M 262.660156 122.71875 C 263.066406 122.632812 263.125 122.707031 263.304688 123.210938 L 263.519531 123.167969 L 263.070312 121.105469 L 262.855469 121.15625 C 262.902344 121.6875 262.878906 121.78125 262.472656 121.871094 L 258.871094 122.652344 C 258.464844 122.738281 258.40625 122.664062 258.226562 122.15625 L 258.011719 122.203125 L 258.460938 124.265625 L 258.675781 124.21875 C 258.628906 123.683594 258.652344 123.589844 259.058594 123.503906 Z M 265.421875 131.011719 C 265.511719 131.648438 265.945312 131.996094 266.714844 131.890625 L 266.683594 131.671875 C 266.183594 131.667969 265.992188 131.351562 265.929688 130.941406 C 265.875 130.53125 265.976562 130.175781 266.453125 130.035156 L 266.417969 129.808594 C 265.65625 129.910156 265.335938 130.375 265.421875 131.011719 M 260.546875 132.59375 C 260.316406 132.386719 260.214844 132.082031 260.167969 131.742188 C 260.011719 130.621094 261.09375 129.949219 262.386719 129.765625 C 263.640625 129.589844 264.75 129.945312 264.910156 131.066406 C 265.011719 131.820312 264.628906 132.328125 263.8125 132.613281 L 263.84375 132.847656 L 264.976562 132.6875 C 265.195312 132.226562 265.253906 131.652344 265.167969 131.015625 C 264.964844 129.5625 263.75 128.632812 262.0625 128.867188 C 260.648438 129.066406 259.667969 130.128906 259.886719 131.6875 C 259.992188 132.421875 260.277344 132.988281 260.660156 133.414062 L 261.871094 133.242188 C 262.28125 133.183594 262.328125 133.265625 262.464844 133.78125 L 262.691406 133.75 L 262.40625 131.703125 L 262.179688 131.734375 C 262.1875 132.273438 262.164062 132.363281 261.753906 132.421875 Z M 265.429688 140.050781 C 265.84375 140.015625 265.894531 140.101562 266.007812 140.625 L 266.226562 140.605469 L 266.039062 138.507812 L 265.820312 138.527344 C 265.800781 139.0625 265.765625 139.15625 265.351562 139.191406 L 261.675781 139.515625 C 261.265625 139.550781 261.210938 139.46875 261.097656 138.949219 L 260.878906 138.96875 L 261.066406 141.066406 L 261.285156 141.046875 C 261.304688 140.507812 261.339844 140.417969 261.753906 140.382812 Z M 265.429688 140.050781 "/>
<path style=" stroke:none;fill-rule:nonzero;fill:rgb(52.941176%,52.941176%,52.941176%);fill-opacity:1;" d="M 18.523438 135.59375 L 22.417969 137.632812 L 21.738281 141.929688 L 24.886719 138.902344 L 28.8125 140.886719 L 26.863281 136.980469 L 29.96875 133.910156 L 25.617188 134.519531 L 23.609375 130.640625 L 22.871094 134.925781 Z M 18.523438 135.59375 "/>
<path style=" stroke:none;fill-rule:nonzero;fill:rgb(52.941176%,52.941176%,52.941176%);fill-opacity:1;" d="M 23.851562 110.640625 L 27.332031 113.328125 L 25.914062 117.4375 L 29.542969 115.007812 L 33.0625 117.644531 L 31.824219 113.457031 L 35.414062 110.976562 L 31.019531 110.820312 L 29.726562 106.652344 L 28.246094 110.738281 Z M 23.851562 110.640625 "/>
<path style=" stroke:none;fill-rule:nonzero;fill:rgb(52.941176%,52.941176%,52.941176%);fill-opacity:1;" d="M 33.9375 86.65625 L 36.746094 90.039062 L 34.464844 93.738281 L 38.539062 92.15625 L 41.394531 95.496094 L 41.101562 91.136719 L 45.148438 89.5 L 40.894531 88.394531 L 40.539062 84.039062 L 38.207031 87.707031 Z M 33.9375 86.65625 "/>
<path style=" stroke:none;fill-rule:nonzero;fill:rgb(52.941176%,52.941176%,52.941176%);fill-opacity:1;" d="M 48.472656 65.441406 L 50.585938 69.296875 L 47.640625 72.496094 L 51.9375 71.71875 L 54.109375 75.542969 L 54.652344 71.210938 L 58.933594 70.375 L 54.972656 68.472656 L 55.449219 64.128906 L 52.460938 67.289062 Z M 48.472656 65.441406 "/>
<path style=" stroke:none;fill-rule:nonzero;fill:rgb(52.941176%,52.941176%,52.941176%);fill-opacity:1;" d="M 66.820312 47.441406 L 68.164062 51.625 L 64.664062 54.207031 L 69.03125 54.265625 L 70.4375 58.429688 L 71.792969 54.277344 L 76.15625 54.273438 L 72.628906 51.648438 L 73.917969 47.480469 L 70.386719 50.011719 Z M 66.820312 47.441406 "/>
<path style=" stroke:none;fill-rule:nonzero;fill:rgb(52.941176%,52.941176%,52.941176%);fill-opacity:1;" d="M 88.308594 33.300781 L 88.824219 37.667969 L 84.898438 39.53125 L 89.167969 40.421875 L 89.75 44.78125 L 91.875 40.964844 L 96.164062 41.796875 L 93.199219 38.546875 L 95.269531 34.699219 L 91.3125 36.507812 Z M 88.308594 33.300781 "/>
<path style=" stroke:none;fill-rule:nonzero;fill:rgb(52.941176%,52.941176%,52.941176%);fill-opacity:1;" d="M 112.164062 23.566406 L 111.816406 27.949219 L 107.597656 29.007812 L 111.621094 30.71875 L 111.332031 35.109375 L 114.164062 31.777344 L 118.203125 33.429688 L 115.933594 29.667969 L 118.714844 26.300781 L 114.484375 27.300781 Z M 112.164062 23.566406 "/>
<path style=" stroke:none;fill-rule:nonzero;fill:rgb(52.941176%,52.941176%,52.941176%);fill-opacity:1;" d="M 137.503906 18.628906 L 136.289062 22.855469 L 131.945312 23.046875 L 135.539062 25.527344 L 134.382812 29.773438 L 137.820312 27.078125 L 141.453125 29.5 L 139.980469 25.359375 L 143.375 22.613281 L 139.03125 22.75 Z M 137.503906 18.628906 "/>
<path style=" stroke:none;fill-rule:nonzero;fill:rgb(52.941176%,52.941176%,52.941176%);fill-opacity:1;" d="M 163.035156 18.773438 L 161.101562 22.71875 L 156.789062 22.148438 L 159.898438 25.222656 L 158.015625 29.195312 L 161.867188 27.144531 L 165.019531 30.171875 L 164.296875 25.832031 L 168.125 23.730469 L 163.820312 23.101562 Z M 163.035156 18.773438 "/>
<path style=" stroke:none;fill-rule:nonzero;fill:rgb(52.941176%,52.941176%,52.941176%);fill-opacity:1;" d="M 188.335938 23.75 L 185.660156 27.238281 L 181.546875 25.828125 L 183.976562 29.449219 L 181.351562 32.972656 L 185.535156 31.730469 L 188.023438 35.320312 L 188.171875 30.925781 L 192.335938 29.617188 L 188.246094 28.148438 Z M 188.335938 23.75 "/>
<path style=" stroke:none;fill-rule:nonzero;fill:rgb(52.941176%,52.941176%,52.941176%);fill-opacity:1;" d="M 212.125 33.570312 L 208.824219 36.472656 L 205.0625 34.289062 L 206.75 38.316406 L 203.488281 41.261719 L 207.835938 40.851562 L 209.578125 44.855469 L 210.574219 40.570312 L 214.917969 40.097656 L 211.1875 37.863281 Z M 212.125 33.570312 "/>
<path style=" stroke:none;fill-rule:nonzero;fill:rgb(52.941176%,52.941176%,52.941176%);fill-opacity:1;" d="M 233.527344 47.800781 L 229.726562 50.015625 L 226.453125 47.160156 L 227.34375 51.433594 L 223.578125 53.703125 L 227.925781 54.132812 L 228.875 58.394531 L 230.671875 54.378906 L 235.019531 54.742188 L 231.785156 51.835938 Z M 233.527344 47.800781 "/>
<path style=" stroke:none;fill-rule:nonzero;fill:rgb(52.941176%,52.941176%,52.941176%);fill-opacity:1;" d="M 251.769531 65.882812 L 247.621094 67.339844 L 244.945312 63.910156 L 245.011719 68.277344 L 240.882812 69.796875 L 245.070312 71.035156 L 245.195312 75.398438 L 247.714844 71.804688 L 251.921875 72.984375 L 249.292969 69.519531 Z M 251.769531 65.882812 "/>
<path style=" stroke:none;fill-rule:nonzero;fill:rgb(52.941176%,52.941176%,52.941176%);fill-opacity:1;" d="M 266.195312 87.164062 L 261.84375 87.796875 L 259.875 83.921875 L 259.101562 88.21875 L 254.757812 88.914062 L 258.628906 90.9375 L 257.914062 95.242188 L 261.082031 92.195312 L 264.980469 94.164062 L 263.070312 90.257812 Z M 266.195312 87.164062 "/>
<path style=" stroke:none;fill-rule:nonzero;fill:rgb(52.941176%,52.941176%,52.941176%);fill-opacity:1;" d="M 276.222656 110.886719 L 271.832031 110.65625 L 270.664062 106.46875 L 269.058594 110.527344 L 264.667969 110.359375 L 268.066406 113.101562 L 266.515625 117.183594 L 270.222656 114.816406 L 273.660156 117.511719 L 272.550781 113.304688 Z M 276.222656 110.886719 "/>
<path style=" stroke:none;fill-rule:nonzero;fill:rgb(52.941176%,52.941176%,52.941176%);fill-opacity:1;" d="M 281.433594 136.160156 L 277.179688 135.054688 L 276.871094 130.714844 L 274.484375 134.375 L 270.214844 133.328125 L 272.996094 136.695312 L 270.664062 140.386719 L 274.769531 138.808594 L 277.59375 142.132812 L 277.351562 137.792969 Z M 281.433594 136.160156 "/>
<path style=" stroke:none;fill-rule:nonzero;fill:rgb(89.019608%,9.803922%,9.803922%);fill-opacity:1;" d="M 244.734375 149.945312 C 244.734375 202.265625 202.320312 244.679688 150 244.679688 C 97.679688 244.679688 55.265625 202.265625 55.265625 149.945312 C 55.265625 97.628906 97.679688 55.214844 150 55.214844 C 202.320312 55.214844 244.734375 97.628906 244.734375 149.945312 Z M 244.734375 149.945312 "/>
<path style=" stroke:none;fill-rule:nonzero;fill:rgb(100%,100%,100%);fill-opacity:1;" d="M 89.617188 171.359375 L 129.761719 171.359375 L 129.761719 165.484375 L 90.121094 165.484375 C 89.28125 165.484375 88.4375 164.644531 88.4375 163.800781 L 88.4375 161.953125 C 88.4375 160.945312 89.109375 160.273438 90.121094 160.273438 L 129.757812 160.273438 L 129.757812 112.910156 C 129.757812 109.378906 127.074219 106.527344 123.710938 106.527344 L 119.683594 106.527344 C 116.324219 106.527344 113.632812 109.386719 113.632812 112.910156 L 113.632812 145.996094 L 119.175781 145.996094 L 119.175781 113.582031 C 119.175781 112.570312 119.847656 111.898438 120.859375 111.898438 L 122.539062 111.898438 C 123.378906 111.898438 124.21875 112.738281 124.21875 113.582031 L 124.21875 154.398438 L 89.617188 154.398438 C 86.261719 154.398438 83.570312 157.253906 83.570312 160.777344 L 83.570312 165.144531 C 83.570312 168.507812 86.257812 171.359375 89.617188 171.359375 Z M 89.617188 171.359375 "/>
<path style=" stroke:none;fill-rule:nonzero;fill:rgb(100%,100%,100%);fill-opacity:1;" d="M 145.382812 141.96875 L 150.085938 141.96875 L 150.085938 149.691406 L 145.382812 149.691406 Z M 145.382812 141.96875 "/>
<path style=" stroke:none;fill-rule:nonzero;fill:rgb(100%,100%,100%);fill-opacity:1;" d="M 151.765625 141.96875 L 156.46875 141.96875 L 156.46875 149.691406 L 151.765625 149.691406 Z M 151.765625 141.96875 "/>
<path style=" stroke:none;fill-rule:nonzero;fill:rgb(100%,100%,100%);fill-opacity:1;" d="M 161.167969 165.484375 L 138.492188 165.484375 C 140.84375 160.777344 145.546875 157.421875 150.921875 157.421875 C 158.644531 157.421875 165.03125 164.140625 165.03125 172.367188 C 165.03125 180.597656 158.816406 187.316406 150.921875 187.316406 C 145.546875 187.316406 141.011719 184.125 138.660156 179.59375 L 138.492188 179.253906 L 132.445312 179.253906 L 132.78125 180.09375 C 135.640625 187.816406 142.691406 193.359375 151.09375 193.359375 C 162.011719 193.359375 170.746094 184.121094 170.746094 172.53125 C 170.746094 161.113281 162.011719 151.703125 151.09375 151.703125 C 140.84375 151.703125 132.28125 160.101562 131.441406 171.019531 L 131.441406 171.6875 L 161.335938 171.6875 L 161.335938 165.476562 L 161.167969 165.476562 Z M 161.167969 165.484375 "/>
<path style=" stroke:none;fill-rule:nonzero;fill:rgb(100%,100%,100%);fill-opacity:1;" d="M 218.277344 164.976562 L 218.277344 160.609375 C 218.277344 157.082031 215.589844 154.230469 212.230469 154.230469 L 177.792969 154.230469 L 177.792969 113.582031 C 177.792969 112.570312 178.464844 111.898438 179.476562 111.898438 L 181.15625 111.898438 C 181.996094 111.898438 182.835938 112.738281 182.835938 113.582031 L 182.835938 146.167969 L 188.378906 146.167969 L 188.378906 112.910156 C 188.378906 109.378906 185.695312 106.527344 182.332031 106.527344 L 178.300781 106.527344 C 174.941406 106.527344 172.25 109.386719 172.25 112.910156 L 172.25 160.277344 L 211.890625 160.277344 C 212.730469 160.277344 213.570312 161.117188 213.570312 161.957031 L 213.570312 163.804688 C 213.570312 164.816406 212.902344 165.488281 211.890625 165.488281 L 172.25 165.488281 L 172.25 171.363281 L 212.394531 171.363281 C 215.589844 171.359375 218.277344 168.507812 218.277344 164.976562 Z M 218.277344 164.976562 "/>
<path style=" stroke:none;fill-rule:nonzero;fill:rgb(52.941176%,52.941176%,52.941176%);fill-opacity:1;" d="M 20.019531 160.785156 L 19.347656 154.230469 L 20.183594 154.230469 L 20.691406 155.910156 L 32.117188 154.734375 C 32.957031 154.566406 33.632812 154.398438 33.796875 154.230469 C 33.964844 154.0625 34.136719 153.558594 33.964844 152.714844 L 34.804688 152.550781 L 35.476562 159.773438 C 35.8125 162.292969 35.308594 164.3125 33.960938 165.820312 C 32.785156 167.335938 30.9375 168.339844 28.585938 168.511719 C 26.234375 168.675781 24.046875 168.171875 22.539062 166.828125 C 21.367188 165.324219 20.355469 163.304688 20.019531 160.785156 Z M 34.46875 159.273438 L 34.304688 157.757812 L 21.195312 159.101562 L 21.363281 160.78125 C 21.527344 162.296875 22.199219 163.300781 23.375 164.144531 C 24.550781 164.816406 26.066406 165.152344 28.246094 164.980469 C 30.601562 164.816406 32.28125 164.144531 33.289062 163.132812 C 34.304688 162.128906 34.640625 160.785156 34.46875 159.273438 Z M 34.46875 159.273438 "/>
<path style=" stroke:none;fill-rule:nonzero;fill:rgb(52.941176%,52.941176%,52.941176%);fill-opacity:1;" d="M 37.160156 175.40625 L 25.902344 177.925781 C 25.066406 178.089844 24.390625 178.429688 24.222656 178.59375 C 24.054688 178.933594 24.054688 179.433594 24.222656 180.109375 L 23.382812 180.277344 L 21.871094 173.722656 L 22.707031 173.558594 L 23.546875 175.238281 L 34.804688 172.71875 C 35.640625 172.550781 36.316406 172.214844 36.484375 172.046875 C 36.652344 171.878906 36.652344 171.207031 36.484375 170.53125 L 37.324219 170.367188 L 38.835938 176.917969 L 38 177.085938 Z M 42.703125 173.722656 C 42.535156 174.0625 42.03125 174.394531 41.527344 174.394531 C 41.023438 174.5625 40.519531 174.394531 40.183594 174.226562 C 39.847656 174.0625 39.511719 173.558594 39.511719 173.050781 C 39.34375 172.546875 39.511719 172.042969 39.679688 171.710938 C 39.847656 171.371094 40.351562 171.039062 40.855469 170.871094 C 41.359375 170.703125 41.863281 170.871094 42.199219 171.039062 C 42.53125 171.203125 42.871094 171.710938 42.871094 172.214844 C 43.042969 172.886719 42.875 173.386719 42.703125 173.722656 Z M 42.703125 173.722656 "/>
<path style=" stroke:none;fill-rule:nonzero;fill:rgb(52.941176%,52.941176%,52.941176%);fill-opacity:1;" d="M 35.140625 189.351562 L 40.011719 190.359375 C 40.683594 190.527344 41.023438 190.527344 41.355469 190.359375 C 41.695312 190.195312 41.695312 190.023438 41.859375 189.855469 C 41.859375 189.6875 41.859375 189.183594 41.695312 188.679688 L 42.53125 188.34375 L 44.378906 193.550781 L 43.542969 193.890625 L 42.53125 192.375 L 33.792969 190.527344 L 30.097656 191.871094 C 29.261719 192.207031 28.757812 192.542969 28.585938 192.710938 C 28.417969 193.046875 28.417969 193.546875 28.585938 194.222656 L 27.746094 194.5625 L 25.394531 188.007812 L 26.234375 187.671875 L 27.242188 189.351562 L 32.453125 187.503906 L 36.824219 181.789062 C 37.492188 180.953125 37.832031 180.445312 38 179.941406 C 38.164062 179.605469 38.164062 179.105469 38 178.597656 L 38.835938 178.261719 L 41.355469 185.320312 L 40.519531 185.65625 L 39.339844 183.808594 Z M 35.140625 189.351562 "/>
<path style=" stroke:none;fill-rule:nonzero;fill:rgb(52.941176%,52.941176%,52.941176%);fill-opacity:1;" d="M 34.640625 207.835938 L 35.816406 209.351562 L 38.335938 206.492188 L 35.984375 201.789062 L 33.96875 201.957031 C 33.464844 201.957031 33.132812 202.121094 32.792969 202.121094 C 32.457031 202.289062 32.289062 202.460938 32.289062 202.792969 C 32.289062 203.128906 32.457031 203.464844 32.625 203.96875 L 31.789062 204.308594 L 29.4375 199.601562 L 30.105469 199.265625 L 31.285156 200.609375 L 47.25 199.265625 L 47.921875 200.78125 L 38.503906 211.199219 C 38 211.871094 37.664062 212.375 37.492188 212.710938 C 37.328125 213.050781 37.492188 213.550781 37.660156 214.226562 L 36.824219 214.5625 L 33.628906 208.179688 Z M 43.207031 200.945312 L 37.492188 201.449219 L 39.507812 205.316406 Z M 43.207031 200.945312 "/>
<path style=" stroke:none;fill-rule:nonzero;fill:rgb(52.941176%,52.941176%,52.941176%);fill-opacity:1;" d="M 50.601562 225.144531 L 56.820312 220.605469 C 57.492188 220.101562 57.996094 219.597656 57.996094 219.265625 C 57.996094 218.925781 57.996094 218.425781 57.492188 217.921875 L 58.164062 217.417969 L 61.1875 221.617188 L 60.515625 222.121094 L 59.171875 220.945312 L 47.074219 229.515625 L 46.234375 228.339844 L 50.4375 214.726562 L 51.105469 213.71875 L 50.941406 213.550781 L 43.378906 218.925781 C 42.707031 219.429688 42.203125 219.9375 42.203125 220.269531 C 42.203125 220.605469 42.371094 221.109375 42.707031 221.613281 L 42.035156 222.117188 L 39.011719 217.917969 L 39.683594 217.414062 L 41.027344 218.589844 L 50.4375 211.867188 C 51.105469 211.359375 51.613281 210.855469 51.613281 210.523438 C 51.777344 210.183594 51.613281 209.683594 51.105469 209.179688 L 51.777344 208.675781 L 54.46875 212.371094 L 50.773438 223.964844 L 50.101562 224.972656 Z M 50.601562 225.144531 "/>
<path style=" stroke:none;fill-rule:nonzero;fill:rgb(52.941176%,52.941176%,52.941176%);fill-opacity:1;" d="M 60.011719 243.125 L 51.441406 234.21875 L 52.113281 233.714844 L 53.625 234.726562 L 61.859375 226.824219 C 62.53125 226.15625 62.867188 225.648438 62.867188 225.3125 C 62.867188 224.972656 62.703125 224.472656 62.199219 223.96875 L 62.867188 223.296875 L 71.441406 232.203125 L 68.246094 235.226562 L 67.40625 234.386719 C 68.246094 233.550781 68.582031 232.875 68.75 232.371094 C 68.75 231.867188 68.410156 231.195312 67.910156 230.523438 L 65.390625 228.007812 L 61.359375 231.871094 L 62.703125 233.386719 C 63.207031 233.890625 63.710938 234.222656 64.046875 234.222656 C 64.378906 234.222656 64.882812 233.886719 65.386719 233.386719 L 66.226562 234.222656 L 62.359375 237.917969 L 61.523438 237.082031 C 62.195312 236.578125 62.359375 236.070312 62.53125 235.738281 C 62.53125 235.402344 62.363281 234.898438 61.859375 234.394531 L 60.515625 232.882812 L 56.144531 237.082031 L 58.496094 239.433594 C 59.167969 240.273438 60.011719 240.609375 60.683594 240.609375 C 61.355469 240.609375 62.199219 240.273438 63.375 239.433594 L 64.210938 240.273438 Z M 60.011719 243.125 "/>
<path style=" stroke:none;fill-rule:nonzero;fill:rgb(52.941176%,52.941176%,52.941176%);fill-opacity:1;" d="M 70.429688 238.082031 L 73.453125 234.214844 L 84.378906 242.953125 L 81.355469 246.820312 L 80.34375 245.980469 C 81.183594 244.972656 81.6875 243.96875 81.519531 243.292969 C 81.519531 242.621094 81.183594 241.949219 80.34375 241.277344 L 79.335938 240.4375 L 72.277344 249.34375 C 71.773438 250.015625 71.441406 250.519531 71.605469 251.023438 C 71.605469 251.363281 71.945312 251.863281 72.617188 252.367188 L 72.109375 253.039062 L 66.398438 248.5 L 66.902344 247.828125 L 68.75 248.839844 L 76.984375 238.421875 L 75.972656 237.582031 C 75.136719 236.910156 74.460938 236.742188 73.789062 236.910156 C 73.117188 237.078125 72.445312 237.582031 71.601562 238.757812 Z M 70.429688 238.082031 "/>
<path style=" stroke:none;fill-rule:nonzero;fill:rgb(52.941176%,52.941176%,52.941176%);fill-opacity:1;" d="M 96.144531 251.191406 L 90.597656 261.273438 C 90.089844 262.109375 89.925781 262.613281 90.089844 262.953125 C 90.257812 263.289062 90.597656 263.625 91.101562 263.960938 L 90.597656 264.800781 L 84.714844 261.605469 L 85.054688 260.933594 L 86.734375 261.4375 L 92.28125 251.359375 C 92.785156 250.519531 92.953125 250.015625 92.785156 249.675781 C 92.617188 249.339844 92.28125 249.007812 91.777344 248.667969 L 92.28125 247.828125 L 98.160156 251.023438 L 97.824219 251.695312 Z M 98.496094 245.980469 C 98.664062 246.488281 98.496094 246.820312 98.328125 247.324219 C 98.160156 247.828125 97.824219 247.996094 97.320312 248.164062 C 96.816406 248.332031 96.480469 248.164062 95.976562 247.996094 C 95.472656 247.828125 95.304688 247.492188 95.136719 246.988281 C 94.972656 246.484375 95.136719 246.148438 95.304688 245.644531 C 95.472656 245.140625 95.808594 244.972656 96.3125 244.804688 C 96.820312 244.640625 97.152344 244.804688 97.65625 244.972656 C 97.992188 245.3125 98.328125 245.644531 98.496094 245.980469 Z M 98.496094 245.980469 "/>
<path style=" stroke:none;fill-rule:nonzero;fill:rgb(52.941176%,52.941176%,52.941176%);fill-opacity:1;" d="M 97.992188 270.015625 L 99 269.003906 C 98.160156 268.5 97.320312 268.167969 96.648438 267.492188 C 95.976562 266.984375 95.472656 266.480469 95.304688 266.148438 L 94.96875 265.644531 L 96.816406 261.273438 L 97.824219 261.777344 C 97.152344 264.972656 97.824219 266.984375 100.007812 267.996094 C 100.847656 268.332031 101.523438 268.332031 102.195312 268.164062 C 102.867188 267.992188 103.203125 267.492188 103.539062 266.984375 C 103.703125 266.480469 103.703125 265.976562 103.539062 265.472656 C 103.371094 264.96875 103.03125 264.296875 102.699219 263.792969 C 102.363281 263.285156 101.859375 262.613281 101.355469 262.109375 C 100.851562 261.605469 100.519531 260.933594 100.011719 260.261719 C 99.675781 259.589844 99.339844 259.085938 99.175781 258.25 C 99.007812 257.578125 99.175781 256.90625 99.339844 256.0625 C 99.847656 254.886719 100.683594 254.046875 101.859375 253.710938 C 103.035156 253.371094 104.550781 253.542969 106.0625 254.214844 C 106.734375 254.554688 107.574219 254.886719 108.074219 255.390625 C 108.746094 255.894531 109.25 256.230469 109.589844 256.566406 L 110.09375 257.070312 L 108.582031 260.9375 L 107.570312 260.433594 C 107.910156 259.257812 107.910156 258.25 107.570312 257.410156 C 107.234375 256.570312 106.734375 255.894531 105.722656 255.5625 C 105.050781 255.222656 104.546875 255.222656 103.875 255.394531 C 103.203125 255.5625 102.867188 255.898438 102.699219 256.570312 C 102.53125 257.074219 102.53125 257.582031 102.699219 258.085938 C 102.867188 258.589844 103.203125 259.261719 103.539062 259.765625 C 104.042969 260.269531 104.375 260.941406 104.878906 261.445312 C 105.386719 261.953125 105.71875 262.625 106.222656 263.292969 C 106.5625 263.964844 106.894531 264.472656 107.0625 265.308594 C 107.230469 265.980469 107.0625 266.652344 106.894531 267.496094 C 106.390625 268.671875 105.550781 269.507812 104.207031 270.015625 C 103.027344 270.351562 101.515625 270.351562 99.835938 269.675781 L 98.996094 270.347656 C 99.332031 270.347656 99.5 270.515625 99.835938 270.515625 C 100.171875 270.679688 100.507812 271.019531 100.671875 271.351562 C 100.839844 271.691406 100.839844 272.191406 100.671875 272.527344 C 100.335938 273.199219 99.835938 273.539062 99.160156 273.707031 C 98.488281 273.871094 97.476562 273.707031 96.300781 273.199219 L 96.804688 272.363281 C 97.984375 272.699219 98.65625 272.527344 98.820312 271.859375 C 98.988281 271.691406 98.988281 271.351562 98.820312 271.1875 C 98.820312 271.019531 98.65625 270.847656 98.484375 270.847656 L 97.980469 270.679688 L 97.980469 270.015625 Z M 97.992188 270.015625 "/>
<path style=" stroke:none;fill-rule:nonzero;fill:rgb(52.941176%,52.941176%,52.941176%);fill-opacity:1;" d="M 111.605469 272.027344 L 114.628906 260.9375 C 114.792969 260.101562 114.964844 259.425781 114.792969 259.089844 C 114.628906 258.753906 114.289062 258.585938 113.453125 258.417969 L 113.617188 257.582031 L 120.339844 259.429688 L 120.175781 260.265625 L 118.160156 260.101562 L 114.632812 272.871094 L 117.828125 273.710938 C 119.003906 274.046875 119.839844 274.046875 120.34375 273.710938 C 121.015625 273.371094 121.523438 272.53125 122.027344 271.355469 L 123.203125 271.695312 L 121.523438 276.234375 L 109.421875 272.871094 L 109.589844 272.03125 L 111.605469 272.03125 Z M 111.605469 272.027344 "/>
<path style=" stroke:none;fill-rule:nonzero;fill:rgb(52.941176%,52.941176%,52.941176%);fill-opacity:1;" d="M 138.488281 278.75 L 126.222656 277.070312 L 126.390625 276.234375 L 128.238281 276.066406 L 129.75 264.636719 C 129.917969 263.800781 129.917969 263.125 129.585938 262.789062 C 129.417969 262.453125 128.914062 262.285156 128.242188 262.285156 L 128.40625 261.445312 L 140.675781 263.128906 L 140.167969 267.328125 L 138.992188 267.160156 C 139.160156 265.984375 138.992188 265.3125 138.65625 264.808594 C 138.316406 264.304688 137.644531 263.96875 136.808594 263.96875 L 133.28125 263.464844 L 132.609375 269.011719 L 134.621094 269.351562 C 135.292969 269.515625 135.796875 269.351562 136.136719 269.183594 C 136.472656 269.015625 136.640625 268.511719 136.640625 267.667969 L 137.816406 267.835938 L 137.144531 273.039062 L 135.96875 272.871094 C 136.136719 272.03125 135.96875 271.527344 135.800781 271.191406 C 135.636719 270.851562 135.132812 270.683594 134.460938 270.519531 L 132.445312 270.179688 L 131.605469 276.226562 L 134.800781 276.734375 C 135.8125 276.898438 136.648438 276.734375 137.152344 276.226562 C 137.660156 275.722656 138.164062 274.886719 138.496094 273.710938 L 139.671875 273.875 Z M 138.488281 278.75 "/>
<path style=" stroke:none;fill-rule:nonzero;fill:rgb(52.941176%,52.941176%,52.941176%);fill-opacity:1;" d="M 143.699219 263.457031 L 150.421875 263.289062 C 152.4375 263.289062 154.117188 263.628906 155.125 264.46875 C 156.136719 265.304688 156.804688 266.316406 156.804688 267.660156 C 156.804688 268.332031 156.640625 269.003906 156.46875 269.507812 C 156.132812 270.015625 155.796875 270.519531 155.460938 270.851562 C 155.121094 271.191406 154.621094 271.355469 154.285156 271.523438 C 153.945312 271.691406 153.613281 271.863281 153.273438 271.863281 L 152.9375 271.863281 L 152.9375 272.027344 L 154.28125 272.867188 L 157.304688 277.570312 L 158.816406 277.910156 L 158.816406 278.746094 L 154.113281 278.746094 L 149.742188 271.859375 L 149.070312 271.859375 L 149.070312 275.722656 C 149.070312 276.5625 149.238281 277.238281 149.40625 277.40625 C 149.578125 277.570312 150.078125 277.742188 150.75 277.742188 L 150.75 278.75 L 144.027344 278.917969 L 144.027344 278.082031 L 145.707031 277.574219 L 145.542969 266.148438 C 145.542969 265.308594 145.375 264.632812 145.203125 264.300781 C 145.035156 263.960938 144.53125 263.960938 143.691406 263.960938 Z M 148.742188 264.632812 L 148.90625 270.851562 L 149.917969 270.851562 C 150.925781 270.851562 151.765625 270.515625 152.269531 270.015625 C 152.773438 269.511719 153.105469 268.671875 153.105469 267.660156 C 153.105469 266.652344 152.769531 265.8125 152.269531 265.308594 C 151.765625 264.804688 150.925781 264.472656 149.75 264.472656 Z M 148.742188 264.632812 "/>
<path style=" stroke:none;fill-rule:nonzero;fill:rgb(52.941176%,52.941176%,52.941176%);fill-opacity:1;" d="M 165.207031 263.457031 L 166.550781 274.886719 C 166.714844 275.722656 166.886719 276.398438 167.054688 276.566406 C 167.222656 276.734375 167.726562 276.902344 168.566406 276.734375 L 168.734375 277.570312 L 162.011719 278.410156 L 161.84375 277.570312 L 163.527344 276.898438 L 162.183594 265.472656 C 162.015625 264.632812 161.84375 263.957031 161.679688 263.792969 C 161.511719 263.625 161.007812 263.453125 160.164062 263.625 L 159.996094 262.785156 L 166.71875 261.949219 L 166.886719 262.785156 Z M 164.203125 257.914062 C 164.539062 258.253906 164.707031 258.585938 164.871094 259.089844 C 164.871094 259.59375 164.871094 260.101562 164.535156 260.433594 C 164.199219 260.773438 163.863281 260.9375 163.359375 261.105469 C 162.855469 261.105469 162.351562 261.105469 162.015625 260.765625 C 161.679688 260.429688 161.511719 260.097656 161.34375 259.589844 C 161.34375 259.085938 161.34375 258.582031 161.683594 258.25 C 162.019531 257.910156 162.355469 257.742188 162.859375 257.578125 C 163.359375 257.578125 163.863281 257.742188 164.203125 257.914062 Z M 164.203125 257.914062 "/>
<path style=" stroke:none;fill-rule:nonzero;fill:rgb(52.941176%,52.941176%,52.941176%);fill-opacity:1;" d="M 176.632812 260.433594 L 183.359375 258.417969 C 185.039062 257.914062 186.382812 257.914062 187.558594 258.253906 C 188.566406 258.589844 189.238281 259.429688 189.570312 260.4375 C 189.738281 261.109375 189.738281 261.613281 189.570312 262.117188 C 189.40625 262.625 189.234375 263.128906 188.902344 263.460938 C 188.566406 263.796875 188.230469 264.132812 187.890625 264.300781 C 187.554688 264.46875 187.21875 264.804688 186.882812 264.804688 L 186.542969 264.972656 L 186.542969 265.136719 C 186.542969 265.136719 186.710938 265.136719 186.882812 265.136719 C 187.050781 265.136719 187.21875 265.136719 187.554688 264.972656 C 187.890625 264.972656 188.226562 264.972656 188.5625 264.972656 C 188.902344 264.972656 189.234375 264.972656 189.738281 265.136719 C 190.242188 265.304688 190.578125 265.304688 190.914062 265.476562 C 191.253906 265.644531 191.585938 265.980469 191.925781 266.316406 C 192.261719 266.652344 192.429688 267.152344 192.597656 267.65625 C 192.933594 268.832031 192.761719 270.011719 192.089844 271.019531 C 191.417969 272.027344 190.078125 272.867188 188.226562 273.371094 L 181.335938 275.386719 L 181.167969 274.546875 L 182.683594 273.710938 L 179.320312 262.621094 C 178.984375 261.78125 178.816406 261.277344 178.480469 260.9375 C 178.144531 260.773438 177.644531 260.773438 176.96875 260.9375 Z M 183.359375 265.304688 L 184.535156 264.96875 C 186.046875 264.464844 186.71875 263.453125 186.214844 261.773438 C 185.710938 260.09375 184.699219 259.421875 183.019531 259.925781 L 181.84375 260.261719 Z M 185.542969 272.871094 L 186.886719 272.53125 C 187.894531 272.195312 188.398438 271.695312 188.902344 271.019531 C 189.238281 270.347656 189.238281 269.503906 189.066406 268.5 C 188.730469 267.492188 188.230469 266.820312 187.554688 266.484375 C 186.882812 266.148438 186.039062 265.980469 185.203125 266.320312 L 183.859375 266.65625 Z M 185.542969 272.871094 "/>
<path style=" stroke:none;fill-rule:nonzero;fill:rgb(52.941176%,52.941176%,52.941176%);fill-opacity:1;" d="M 205.371094 265.980469 L 207.050781 264.804688 L 204.195312 262.113281 L 199.324219 264.300781 L 199.488281 266.316406 C 199.488281 266.820312 199.488281 267.152344 199.65625 267.492188 C 199.824219 267.828125 199.996094 267.996094 200.328125 267.996094 C 200.664062 267.996094 201 267.996094 201.503906 267.65625 L 201.84375 268.496094 L 196.972656 270.679688 L 196.632812 270.011719 L 197.976562 268.832031 L 197.136719 252.867188 L 198.652344 252.195312 L 208.734375 261.945312 C 209.402344 262.449219 209.910156 262.953125 210.246094 262.953125 C 210.75 263.121094 211.085938 262.953125 211.761719 262.785156 L 212.097656 263.625 L 205.546875 266.648438 Z M 198.984375 257.070312 L 199.324219 262.785156 L 203.1875 260.9375 Z M 198.984375 257.070312 "/>
<path style=" stroke:none;fill-rule:nonzero;fill:rgb(52.941176%,52.941176%,52.941176%);fill-opacity:1;" d="M 219.988281 260.773438 L 219.824219 259.257812 C 218.984375 259.761719 218.140625 260.097656 217.304688 260.265625 C 216.464844 260.433594 215.789062 260.605469 215.457031 260.605469 L 214.785156 260.605469 L 212.265625 256.570312 L 213.273438 255.898438 C 215.460938 258.253906 217.644531 258.925781 219.660156 257.582031 C 220.332031 257.074219 220.835938 256.570312 221.003906 255.898438 C 221.167969 255.226562 221.167969 254.722656 220.835938 254.050781 C 220.496094 253.546875 220.164062 253.378906 219.492188 253.214844 C 218.820312 253.046875 218.316406 253.046875 217.644531 253.046875 C 216.972656 253.046875 216.300781 253.046875 215.460938 253.214844 C 214.621094 253.378906 213.945312 253.214844 213.273438 253.214844 C 212.601562 253.214844 211.929688 253.046875 211.257812 252.710938 C 210.589844 252.371094 210.082031 251.871094 209.746094 251.367188 C 209.074219 250.355469 208.90625 249.179688 209.242188 247.835938 C 209.578125 246.660156 210.585938 245.484375 211.929688 244.644531 C 212.601562 244.136719 213.273438 243.804688 214.117188 243.632812 C 214.789062 243.296875 215.460938 243.128906 215.796875 243.128906 L 216.46875 242.960938 L 218.65625 246.492188 L 217.644531 247.164062 C 216.972656 246.324219 216.132812 245.648438 215.125 245.480469 C 214.289062 245.316406 213.445312 245.480469 212.605469 245.984375 C 212.101562 246.324219 211.597656 246.824219 211.429688 247.328125 C 211.261719 247.832031 211.429688 248.503906 211.597656 248.84375 C 211.933594 249.347656 212.269531 249.515625 212.941406 249.679688 C 213.445312 249.847656 214.117188 249.847656 214.789062 249.847656 C 215.460938 249.847656 216.132812 249.847656 216.972656 249.679688 C 217.8125 249.679688 218.488281 249.679688 219.160156 249.679688 C 219.832031 249.679688 220.503906 249.847656 221.171875 250.1875 C 221.84375 250.523438 222.351562 251.023438 222.6875 251.527344 C 223.359375 252.707031 223.527344 253.882812 223.191406 255.058594 C 222.855469 256.234375 221.847656 257.410156 220.335938 258.417969 L 220.503906 259.59375 C 220.667969 259.429688 220.839844 259.257812 221.171875 259.089844 C 221.507812 258.925781 222.011719 258.753906 222.351562 258.925781 C 222.855469 259.089844 223.1875 259.261719 223.359375 259.59375 C 223.695312 260.101562 223.695312 260.773438 223.527344 261.609375 C 223.359375 262.449219 222.515625 263.125 221.511719 263.796875 L 221.171875 262.957031 C 222.183594 262.285156 222.351562 261.613281 222.011719 260.941406 C 221.84375 260.777344 221.675781 260.605469 221.507812 260.605469 C 221.339844 260.605469 221.167969 260.605469 221.003906 260.605469 L 220.664062 260.941406 Z M 219.988281 260.773438 "/>
<path style=" stroke:none;fill-rule:nonzero;fill:rgb(52.941176%,52.941176%,52.941176%);fill-opacity:1;" d="M 223.519531 238.421875 L 230.914062 247.160156 C 231.585938 247.828125 231.921875 248.167969 232.253906 248.335938 C 232.59375 248.335938 233.09375 248.167969 233.597656 247.664062 L 234.269531 248.335938 L 229.0625 252.707031 L 228.554688 252.035156 L 229.566406 250.519531 L 222.171875 241.78125 C 221.5 241.109375 221.160156 240.773438 220.828125 240.605469 C 220.488281 240.605469 219.988281 240.773438 219.484375 241.277344 L 218.8125 240.605469 L 224.023438 236.234375 L 224.527344 236.90625 Z M 227.890625 243.464844 L 228.054688 236.574219 C 228.054688 236.234375 228.054688 236.066406 228.054688 235.902344 C 228.054688 235.734375 228.054688 235.5625 228.054688 235.398438 C 228.054688 235.230469 227.890625 235.058594 227.890625 235.058594 C 227.550781 234.722656 227.21875 234.890625 226.546875 235.398438 L 225.875 234.726562 L 230.074219 231.195312 L 230.578125 231.867188 L 229.570312 233.210938 L 229.230469 240.605469 L 238.980469 242.621094 L 240.492188 241.78125 L 240.996094 242.453125 L 237.300781 245.648438 Z M 227.890625 243.464844 "/>
<path style=" stroke:none;fill-rule:nonzero;fill:rgb(52.941176%,52.941176%,52.941176%);fill-opacity:1;" d="M 249.398438 232.035156 L 250.40625 230.355469 L 246.710938 229.179688 L 243.179688 233.210938 L 244.1875 234.890625 C 244.355469 235.398438 244.691406 235.730469 244.859375 235.902344 C 245.027344 236.066406 245.363281 236.238281 245.53125 236.066406 C 245.699219 236.066406 246.035156 235.730469 246.539062 235.230469 L 247.210938 235.902344 L 243.683594 239.933594 L 243.011719 239.429688 L 243.851562 237.914062 L 236.457031 223.800781 L 237.464844 222.625 L 250.742188 227.164062 C 251.578125 227.5 252.082031 227.5 252.589844 227.5 C 253.09375 227.5 253.425781 227.164062 253.765625 226.664062 L 254.4375 227.335938 L 249.734375 232.707031 Z M 239.988281 226.824219 L 242.679688 231.867188 L 245.535156 228.671875 Z M 239.988281 226.824219 "/>
<path style=" stroke:none;fill-rule:nonzero;fill:rgb(52.941176%,52.941176%,52.941176%);fill-opacity:1;" d="M 259.476562 210.695312 L 252.925781 206.660156 C 252.085938 206.15625 251.582031 205.988281 251.246094 205.988281 C 250.90625 205.988281 250.574219 206.328125 250.234375 206.996094 L 249.398438 206.492188 L 252.085938 202.121094 L 252.757812 202.628906 L 252.253906 204.308594 L 264.859375 212.035156 L 264.019531 213.378906 L 249.734375 214.722656 L 248.558594 214.554688 L 248.390625 214.722656 L 256.292969 219.59375 C 257.128906 220.097656 257.632812 220.265625 257.972656 220.265625 C 258.308594 220.265625 258.644531 219.929688 258.980469 219.257812 L 259.820312 219.761719 L 257.128906 224.132812 L 256.457031 223.628906 L 256.964844 221.945312 L 247.214844 215.898438 C 246.378906 215.394531 245.871094 215.226562 245.535156 215.226562 C 245.199219 215.226562 244.863281 215.566406 244.359375 216.238281 L 243.519531 215.730469 L 246.039062 211.867188 L 258.140625 210.6875 L 259.316406 210.855469 Z M 259.476562 210.695312 "/>
<path style=" stroke:none;fill-rule:nonzero;fill:rgb(52.941176%,52.941176%,52.941176%);fill-opacity:1;" d="M 267.042969 204.476562 L 256.457031 199.9375 C 255.621094 199.597656 255.113281 199.433594 254.777344 199.597656 C 254.441406 199.765625 254.105469 200.105469 253.769531 200.777344 L 252.929688 200.4375 L 255.785156 194.050781 L 256.457031 194.390625 L 256.121094 196.40625 L 268.21875 201.78125 L 269.5625 198.757812 C 270.066406 197.746094 270.066406 196.910156 269.902344 196.238281 C 269.5625 195.566406 268.890625 194.894531 267.886719 194.222656 L 268.390625 193.046875 L 272.589844 195.398438 L 267.546875 206.828125 L 266.875 206.488281 Z M 267.042969 204.476562 "/>
<path style=" stroke:none;fill-rule:nonzero;fill:rgb(52.941176%,52.941176%,52.941176%);fill-opacity:1;" d="M 261.328125 181.789062 L 272.253906 185.320312 C 273.089844 185.65625 273.765625 185.65625 274.101562 185.484375 C 274.4375 185.320312 274.605469 184.980469 274.9375 184.308594 L 275.777344 184.648438 L 273.761719 191.199219 L 272.925781 191.03125 L 273.089844 189.183594 L 262.167969 185.65625 C 261.328125 185.320312 260.65625 185.320312 260.320312 185.488281 C 259.984375 185.65625 259.816406 185.992188 259.480469 186.664062 L 258.644531 186.328125 L 260.660156 179.777344 L 261.496094 179.941406 Z M 261.328125 181.789062 "/>
<path style=" stroke:none;fill-rule:nonzero;fill:rgb(52.941176%,52.941176%,52.941176%);fill-opacity:1;" d="M 260.992188 166.667969 C 261.496094 167.339844 261.664062 168.179688 261.496094 169.019531 C 261.328125 169.859375 260.824219 170.53125 260.152344 171.035156 C 259.480469 171.539062 258.640625 171.707031 257.632812 171.539062 L 257.800781 170.699219 L 257.96875 170.699219 C 257.96875 170.699219 258.136719 170.53125 258.304688 170.53125 C 258.472656 170.367188 258.644531 170.367188 258.8125 170.195312 C 258.976562 170.027344 259.148438 169.859375 259.316406 169.691406 C 259.480469 169.523438 259.652344 169.1875 259.652344 168.851562 C 259.820312 168.347656 259.652344 167.84375 259.484375 167.507812 C 259.320312 167.003906 259.148438 166.835938 258.816406 166.671875 L 258.476562 166.332031 L 258.644531 165.496094 C 259.816406 165.492188 260.488281 165.824219 260.992188 166.667969 Z M 277.628906 171.710938 C 277.628906 171.371094 277.796875 170.871094 277.796875 170.53125 C 277.796875 170.195312 277.796875 169.863281 277.796875 169.695312 L 277.796875 169.355469 L 274.601562 168.683594 C 273.761719 168.519531 273.085938 168.519531 272.753906 168.683594 C 272.414062 168.851562 272.25 169.355469 272.082031 170.199219 L 271.242188 170.03125 L 272.417969 163.648438 L 273.257812 163.8125 L 273.257812 165.15625 L 278.46875 166.167969 C 278.46875 166.332031 278.632812 166.671875 278.804688 167.003906 C 278.972656 167.34375 278.972656 168.015625 279.144531 169.019531 C 279.144531 170.027344 279.144531 171.035156 278.976562 171.875 C 278.472656 174.226562 277.460938 176.074219 275.78125 177.253906 C 274.101562 178.429688 272.085938 178.765625 269.5625 178.261719 C 267.042969 177.757812 265.363281 176.582031 264.015625 174.734375 C 262.839844 172.886719 262.335938 170.699219 262.839844 168.179688 C 263.007812 167.34375 263.175781 166.667969 263.511719 165.828125 C 263.847656 164.988281 264.183594 164.484375 264.351562 164.148438 L 264.6875 163.644531 L 268.71875 164.480469 L 268.554688 165.65625 C 267.378906 165.65625 266.367188 165.824219 265.53125 166.328125 C 264.691406 166.832031 264.355469 167.671875 264.015625 168.679688 C 263.679688 170.195312 264.015625 171.371094 265.023438 172.375 C 266.035156 173.386719 267.542969 174.222656 269.730469 174.5625 C 272.082031 175.066406 273.929688 174.898438 275.277344 174.222656 C 276.621094 174.226562 277.460938 173.21875 277.628906 171.710938 Z M 277.628906 171.710938 "/>
<path style=" stroke:none;fill-rule:nonzero;fill:rgb(52.941176%,52.941176%,52.941176%);fill-opacity:1;" d="M 266.035156 155.238281 L 277.460938 156.078125 C 278.300781 156.078125 278.976562 156.078125 279.308594 155.910156 C 279.648438 155.742188 279.816406 155.238281 279.816406 154.566406 L 280.652344 154.566406 L 280.148438 161.289062 L 279.308594 161.289062 L 278.972656 159.441406 L 267.542969 158.601562 C 266.707031 158.601562 266.03125 158.601562 265.695312 158.765625 C 265.359375 158.933594 265.191406 159.4375 265.191406 160.109375 L 264.355469 160.109375 L 264.859375 153.386719 L 265.695312 153.386719 Z M 266.035156 155.238281 "/>
</g>
</svg>
